<svg xmlns="http://www.w3.org/2000/svg" viewBox="0 0 960 540" fill="none">
  <defs>
    <style>
      text { font-family: -apple-system, BlinkMacSystemFont, 'Segoe UI', sans-serif; }
    </style>
  </defs>

  <!-- Background -->
  <rect width="960" height="540" rx="12" fill="#f9fafb" stroke="#e5e7eb" stroke-width="1"/>

  <!-- Nav bar -->
  <rect width="960" height="44" rx="12" fill="#fff" stroke="#e5e7eb" stroke-width="1"/>
  <rect y="32" width="960" height="12" fill="#fff"/>
  <text x="16" y="28" font-size="14" font-weight="700" fill="#111827">whizmob</text>
  <rect x="80" y="14" width="200" height="20" rx="10" fill="#f3f4f6"/>
  <text x="90" y="28" font-size="10" fill="#6b7280">97 components · 129 edges · 3 mobs</text>

  <!-- Left panel - Mob list -->
  <rect x="0" y="44" width="220" height="496" fill="rgba(249,250,251,0.8)" stroke="#e5e7eb" stroke-width="1"/>
  <text x="16" y="72" font-size="11" font-weight="600" fill="#6b7280" letter-spacing="0.05em">DISCOVERED MOBS</text>
  <rect x="190" y="60" width="18" height="18" rx="9" fill="#f3f4f6"/>
  <text x="196" y="73" font-size="10" fill="#9ca3af" text-anchor="middle">3</text>

  <!-- Selected mob -->
  <rect x="0" y="84" width="220" height="64" fill="#fff"/>
  <rect x="0" y="84" width="2" height="64" fill="#6366f1"/>
  <text x="16" y="106" font-size="13" font-weight="500" fill="#111827">Cofounder System</text>
  <text x="16" y="124" font-size="11" fill="#9ca3af">22 agents · 87 connections</text>

  <!-- Other mobs -->
  <rect x="0" y="148" width="220" height="56" fill="transparent"/>
  <line x1="0" y1="148" x2="220" y2="148" stroke="#f3f4f6" stroke-width="1"/>
  <text x="16" y="172" font-size="13" font-weight="500" fill="#111827">Sprint Coordinator System</text>
  <text x="16" y="188" font-size="11" fill="#9ca3af">5 agents · 12 connections</text>

  <rect x="0" y="204" width="220" height="56" fill="transparent"/>
  <line x1="0" y1="204" x2="220" y2="204" stroke="#f3f4f6" stroke-width="1"/>
  <text x="16" y="228" font-size="13" font-weight="500" fill="#111827">Review Pipeline</text>
  <text x="16" y="244" font-size="11" fill="#9ca3af">3 agents · 6 connections</text>

  <!-- Full Inventory link -->
  <text x="110" y="520" font-size="11" fill="#6b7280" text-anchor="middle">Full Inventory →</text>

  <!-- Right panel - Graph area -->
  <rect x="228" y="52" width="724" height="230" rx="8" fill="#fff" stroke="#e5e7eb" stroke-width="1"/>

  <!-- Graph nodes and edges -->
  <!-- Cofounder (hub) -->
  <circle cx="560" cy="140" r="14" fill="#6366f1"/>
  <text x="560" y="168" font-size="10" fill="#374151" text-anchor="middle">Cofounder</text>

  <!-- Connected nodes -->
  <circle cx="420" cy="100" r="9" fill="#059669"/>
  <text x="420" y="124" font-size="9" fill="#374151" text-anchor="middle">Standup</text>

  <circle cx="440" cy="200" r="9" fill="#059669"/>
  <text x="440" y="224" font-size="9" fill="#374151" text-anchor="middle">Roadmap</text>

  <circle cx="700" cy="100" r="9" fill="#059669"/>
  <text x="700" y="124" font-size="9" fill="#374151" text-anchor="middle">Sprint</text>

  <circle cx="700" cy="200" r="9" fill="#059669"/>
  <text x="700" y="224" font-size="9" fill="#374151" text-anchor="middle">Debrief</text>

  <circle cx="340" cy="160" r="9" fill="#6366f1"/>
  <text x="340" y="184" font-size="9" fill="#374151" text-anchor="middle">Chief of Staff</text>

  <circle cx="790" cy="150" r="9" fill="#6366f1"/>
  <text x="790" y="174" font-size="9" fill="#374151" text-anchor="middle">Sprint Coord</text>

  <circle cx="560" cy="70" r="8" fill="#059669"/>
  <text x="560" y="60" font-size="9" fill="#374151" text-anchor="middle">Leadership</text>

  <circle cx="640" cy="240" r="8" fill="#d97706"/>
  <text x="640" y="260" font-size="9" fill="#374151" text-anchor="middle">Google WS</text>

  <!-- Edges -->
  <line x1="560" y1="140" x2="420" y2="100" stroke="rgba(99,102,241,0.3)" stroke-width="1.5"/>
  <line x1="560" y1="140" x2="440" y2="200" stroke="rgba(99,102,241,0.3)" stroke-width="1.5"/>
  <line x1="560" y1="140" x2="700" y2="100" stroke="rgba(99,102,241,0.3)" stroke-width="1.5"/>
  <line x1="560" y1="140" x2="700" y2="200" stroke="rgba(99,102,241,0.3)" stroke-width="1.5"/>
  <line x1="560" y1="140" x2="340" y2="160" stroke="rgba(99,102,241,0.3)" stroke-width="1.5"/>
  <line x1="560" y1="140" x2="790" y2="150" stroke="rgba(156,163,175,0.3)" stroke-width="1"/>
  <line x1="560" y1="140" x2="560" y2="70" stroke="rgba(99,102,241,0.3)" stroke-width="1.5"/>
  <line x1="420" y1="100" x2="340" y2="160" stroke="rgba(156,163,175,0.3)" stroke-width="1"/>
  <line x1="700" y1="100" x2="790" y2="150" stroke="rgba(156,163,175,0.3)" stroke-width="1"/>
  <line x1="700" y1="200" x2="640" y2="240" stroke="rgba(156,163,175,0.3)" stroke-width="1"/>
  <line x1="440" y1="200" x2="560" y2="70" stroke="rgba(156,163,175,0.3)" stroke-width="1"/>

  <!-- Bottom: Component cards -->
  <text x="236" y="304" font-size="11" font-weight="600" fill="#6b7280" letter-spacing="0.05em">COMPONENTS · 22</text>

  <!-- Card 1 -->
  <rect x="228" y="314" width="352" height="100" rx="8" fill="#fff" stroke="#a5b4fc" stroke-width="1.5"/>
  <rect x="228" y="314" width="352" height="100" rx="8" fill="rgba(238,242,255,0.2)"/>
  <text x="244" y="338" font-size="13" font-weight="600" fill="#111827">Cofounder</text>
  <rect x="324" y="324" width="46" height="18" rx="4" fill="#eef2ff"/>
  <text x="334" y="337" font-size="10" font-weight="500" fill="#4338ca">Agent</text>
  <text x="244" y="358" font-size="11" fill="#6b7280">Co-founder operating partner. Reads live business state...</text>
  <text x="244" y="388" font-size="10" fill="#9ca3af">/cofounder · SKILL.md · 14 connections</text>

  <!-- Card 2 -->
  <rect x="588" y="314" width="352" height="100" rx="8" fill="#fff" stroke="#e5e7eb" stroke-width="1"/>
  <text x="604" y="338" font-size="13" font-weight="600" fill="#111827">Standup</text>
  <rect x="664" y="324" width="38" height="18" rx="4" fill="#ecfdf5"/>
  <text x="670" y="337" font-size="10" font-weight="500" fill="#047857">Skill</text>
  <text x="604" y="358" font-size="11" fill="#6b7280">Interactive portfolio standup. Collects data from 10...</text>
  <text x="604" y="388" font-size="10" fill="#9ca3af">/standup · SKILL.md · 8 connections</text>

  <!-- Card 3 -->
  <rect x="228" y="422" width="352" height="100" rx="8" fill="#fff" stroke="#e5e7eb" stroke-width="1"/>
  <text x="244" y="446" font-size="13" font-weight="600" fill="#111827">Chief of Staff</text>
  <rect x="348" y="432" width="46" height="18" rx="4" fill="#eef2ff"/>
  <text x="358" y="445" font-size="10" font-weight="500" fill="#4338ca">Agent</text>
  <text x="244" y="466" font-size="11" fill="#6b7280">Portfolio-level strategic advisor. Reads all project...</text>
  <text x="244" y="496" font-size="10" fill="#9ca3af">chief-of-staff.md · 6 connections</text>

  <!-- Card 4 -->
  <rect x="588" y="422" width="352" height="100" rx="8" fill="#fff" stroke="#e5e7eb" stroke-width="1"/>
  <text x="604" y="446" font-size="13" font-weight="600" fill="#111827">Roadmap</text>
  <rect x="672" y="432" width="38" height="18" rx="4" fill="#ecfdf5"/>
  <text x="678" y="445" font-size="10" font-weight="500" fill="#047857">Skill</text>
  <text x="604" y="466" font-size="11" fill="#6b7280">Roadmap planning session per project. Multi-perspective...</text>
  <text x="604" y="496" font-size="10" fill="#9ca3af">/roadmap · SKILL.md · 5 connections</text>
</svg>
